HIERARCHY
ROOT hips
{
	OFFSET 0.000000 104.274902 0.000000
	CHANNELS 6 Xposition Yposition Zposition Xrotation Yrotation Zrotation
	JOINT spine
	{
		OFFSET 0.000000 10.181549 0.131524
		CHANNELS 6 Xposition Yposition Zposition Xrotation Yrotation Zrotation
		JOINT chest
		{
			OFFSET 0.000000 9.893990 -1.470706
			CHANNELS 3 Xrotation Yrotation Zrotation
			JOINT upperChest
			{
				OFFSET 0.000000 9.220787 -1.370637
				CHANNELS 3 Xrotation Yrotation Zrotation
				JOINT neck
				{
					OFFSET 0.000000 16.740372 -2.049022
					CHANNELS 6 Xposition Yposition Zposition Xrotation Yrotation Zrotation
					JOINT head
					{
						OFFSET 0.000000 9.617859 1.684976
						CHANNELS 6 Xposition Yposition Zposition Xrotation Yrotation Zrotation
						JOINT headEnd
						{
							OFFSET 0.000000 22.037384 7.501072
							CHANNELS 6 Xposition Yposition Zposition Xrotation Yrotation Zrotation
							End Site
							{
								OFFSET 0.000000 23.106567 -2.828246
							}
						}
					}
				}
				JOINT rightShoulder
				{
					OFFSET -4.570000 11.014877 -2.160840
					CHANNELS 6 Xposition Yposition Zposition Xrotation Yrotation Zrotation
					JOINT rightUpperArm
					{
						OFFSET -10.592867 -0.524796 -2.232105
						CHANNELS 3 Xrotation Yrotation Zrotation
						JOINT rightLowerArm
						{
							OFFSET -27.841497 0.000000 -0.000002
							CHANNELS 3 Xrotation Yrotation Zrotation
							JOINT rightHand
							{
								OFFSET -28.328812 0.000000 -0.000001
								CHANNELS 3 Xrotation Yrotation Zrotation
								JOINT rightThumbProximal
								{
									OFFSET -2.464798 -1.573990 2.681911
									CHANNELS 6 Xposition Yposition Zposition Xrotation Yrotation Zrotation
									JOINT rightThumbIntermediate
									{
										OFFSET -3.244781 -1.873383 1.873376
										CHANNELS 3 Xrotation Yrotation Zrotation
										JOINT rightThumbDistal
										{
											OFFSET -2.646263 -1.527817 1.527818
											CHANNELS 6 Xposition Yposition Zposition Xrotation Yrotation Zrotation
											JOINT rightHandThumb4
											{
												OFFSET -1.994591 -1.151581 1.151575
												CHANNELS 6 Xposition Yposition Zposition Xrotation Yrotation Zrotation
												End Site
												{
													OFFSET -1.860176 -1.142715 1.365483
												}
											}
										}
									}
								}
								JOINT rightIndexProximal
								{
									OFFSET -9.108299 -0.517883 2.259803
									CHANNELS 6 Xposition Yposition Zposition Xrotation Yrotation Zrotation
									JOINT rightIndexIntermediate
									{
										OFFSET -3.699997 0.000000 0.000000
										CHANNELS 3 Xrotation Yrotation Zrotation
										JOINT rightIndexDistal
										{
											OFFSET -2.850006 0.000000 0.000000
											CHANNELS 3 Xrotation Yrotation Zrotation
											JOINT rightHandIndex4
											{
												OFFSET -2.772194 0.000000 0.000000
												CHANNELS 3 Xrotation Yrotation Zrotation
												End Site
												{
													OFFSET -2.772202 0.000000 -0.000484
												}
											}
										}
									}
								}
								JOINT rightMiddleProximal
								{
									OFFSET -9.532501 0.000000 -0.000000
									CHANNELS 6 Xposition Yposition Zposition Xrotation Yrotation Zrotation
									JOINT rightMiddleIntermediate
									{
										OFFSET -3.699997 0.000000 0.000000
										CHANNELS 3 Xrotation Yrotation Zrotation
										JOINT rightMiddleDistal
										{
											OFFSET -2.949997 0.000000 0.000000
											CHANNELS 3 Xrotation Yrotation Zrotation
											JOINT rightHandMiddle4
											{
												OFFSET -2.946594 0.000000 0.000000
												CHANNELS 3 Xrotation Yrotation Zrotation
												End Site
												{
													OFFSET -2.946602 0.000000 -0.000982
												}
											}
										}
									}
								}
								JOINT rightRingProximal
								{
									OFFSET -9.103600 -0.043106 -1.865100
									CHANNELS 6 Xposition Yposition Zposition Xrotation Yrotation Zrotation
									JOINT rightRingIntermediate
									{
										OFFSET -3.379303 0.000000 0.000000
										CHANNELS 3 Xrotation Yrotation Zrotation
										JOINT rightRingDistal
										{
											OFFSET -2.889694 0.000000 0.000000
											CHANNELS 3 Xrotation Yrotation Zrotation
											JOINT rightHandRing4
											{
												OFFSET -2.638802 0.000000 0.000000
												CHANNELS 3 Xrotation Yrotation Zrotation
												End Site
												{
													OFFSET -2.638802 0.000000 0.004218
												}
											}
										}
									}
								}
								JOINT rightLittleProximal
								{
									OFFSET -8.076698 -0.486725 -3.806299
									CHANNELS 6 Xposition Yposition Zposition Xrotation Yrotation Zrotation
									JOINT rightLittleIntermediate
									{
										OFFSET -3.600006 0.000000 0.000000
										CHANNELS 3 Xrotation Yrotation Zrotation
										JOINT rightLittleDistal
										{
											OFFSET -2.099998 0.000000 0.000000
											CHANNELS 3 Xrotation Yrotation Zrotation
											JOINT rightHandPinky4
											{
												OFFSET -2.115791 0.000000 0.000000
												CHANNELS 3 Xrotation Yrotation Zrotation
												End Site
												{
													OFFSET -2.115799 0.000000 0.000174
												}
											}
										}
									}
								}
							}
						}
					}
				}
				JOINT leftShoulder
				{
					OFFSET 4.570400 11.014679 -2.160816
					CHANNELS 6 Xposition Yposition Zposition Xrotation Yrotation Zrotation
					JOINT leftUpperArm
					{
						OFFSET 10.592373 -0.524597 -2.232116
						CHANNELS 3 Xrotation Yrotation Zrotation
						JOINT leftLowerArm
						{
							OFFSET 27.841488 0.000000 0.000001
							CHANNELS 3 Xrotation Yrotation Zrotation
							JOINT leftHand
							{
								OFFSET 28.328808 0.000000 -0.000000
								CHANNELS 3 Xrotation Yrotation Zrotation
								JOINT leftThumbProximal
								{
									OFFSET 2.466103 -1.576202 2.681698
									CHANNELS 6 Xposition Yposition Zposition Xrotation Yrotation Zrotation
									JOINT leftThumbIntermediate
									{
										OFFSET 3.243317 -1.872528 1.872530
										CHANNELS 3 Xrotation Yrotation Zrotation
										JOINT leftThumbDistal
										{
											OFFSET 2.647881 -1.528763 1.528754
											CHANNELS 6 Xposition Yposition Zposition Xrotation Yrotation Zrotation
											JOINT leftHandThumb4
											{
												OFFSET 1.998924 -1.154083 1.154080
												CHANNELS 6 Xposition Yposition Zposition Xrotation Yrotation Zrotation
												End Site
												{
													OFFSET 1.884041 -1.149155 1.337651
												}
											}
										}
									}
								}
								JOINT leftIndexProximal
								{
									OFFSET 9.109299 -0.518005 2.259900
									CHANNELS 6 Xposition Yposition Zposition Xrotation Yrotation Zrotation
									JOINT leftIndexIntermediate
									{
										OFFSET 3.699997 0.000000 0.000000
										CHANNELS 3 Xrotation Yrotation Zrotation
										JOINT leftIndexDistal
										{
											OFFSET 2.850006 0.000000 0.000000
											CHANNELS 3 Xrotation Yrotation Zrotation
											JOINT leftHandIndex4
											{
												OFFSET 2.774895 0.000000 0.000000
												CHANNELS 3 Xrotation Yrotation Zrotation
												End Site
												{
													OFFSET 2.774902 0.000000 -0.000072
												}
											}
										}
									}
								}
								JOINT leftMiddleProximal
								{
									OFFSET 9.533401 0.000000 0.000000
									CHANNELS 6 Xposition Yposition Zposition Xrotation Yrotation Zrotation
									JOINT leftMiddleIntermediate
									{
										OFFSET 3.699997 0.000000 0.000000
										CHANNELS 3 Xrotation Yrotation Zrotation
										JOINT leftMiddleDistal
										{
											OFFSET 2.949997 0.000000 0.000000
											CHANNELS 3 Xrotation Yrotation Zrotation
											JOINT leftHandMiddle4
											{
												OFFSET 2.952896 0.000000 0.000000
												CHANNELS 3 Xrotation Yrotation Zrotation
												End Site
												{
													OFFSET 2.952904 0.000000 0.000165
												}
											}
										}
									}
								}
								JOINT leftRingProximal
								{
									OFFSET 9.104500 -0.042999 -1.865101
									CHANNELS 6 Xposition Yposition Zposition Xrotation Yrotation Zrotation
									JOINT leftRingIntermediate
									{
										OFFSET 3.149994 0.000000 0.000000
										CHANNELS 3 Xrotation Yrotation Zrotation
										JOINT leftRingDistal
										{
											OFFSET 2.950005 0.000000 0.000000
											CHANNELS 3 Xrotation Yrotation Zrotation
											JOINT leftHandRing4
											{
												OFFSET 2.644302 0.000000 0.000000
												CHANNELS 3 Xrotation Yrotation Zrotation
												End Site
												{
													OFFSET 2.644302 0.000000 0.000083
												}
											}
										}
									}
								}
								JOINT leftLittleProximal
								{
									OFFSET 8.077805 -0.486893 -3.806302
									CHANNELS 6 Xposition Yposition Zposition Xrotation Yrotation Zrotation
									JOINT leftLittleIntermediate
									{
										OFFSET 3.600006 0.000000 0.000000
										CHANNELS 3 Xrotation Yrotation Zrotation
										JOINT leftLittleDistal
										{
											OFFSET 2.099998 0.000000 0.000000
											CHANNELS 3 Xrotation Yrotation Zrotation
											JOINT leftHandPinky4
											{
												OFFSET 2.125496 0.000000 0.000000
												CHANNELS 3 Xrotation Yrotation Zrotation
												End Site
												{
													OFFSET 2.125504 0.000000 -0.001254
												}
											}
										}
									}
								}
							}
						}
					}
				}
			}
		}
	}
	JOINT rightUpperLeg
	{
		OFFSET -8.207800 -6.751701 -1.599544
		CHANNELS 6 Xposition Yposition Zposition Xrotation Yrotation Zrotation
		JOINT rightLowerLeg
		{
			OFFSET 0.000004 -44.370152 0.345934
			CHANNELS 3 Xrotation Yrotation Zrotation
			JOINT rightFoot
			{
				OFFSET 0.000004 -44.423664 -3.043535
				CHANNELS 3 Xrotation Yrotation Zrotation
				JOINT rightToes
				{
					OFFSET 0.000001 -8.728691 10.710592
					CHANNELS 3 Xrotation Yrotation Zrotation
					JOINT rightToesEnd
					{
						OFFSET 0.000000 -0.000665 9.278101
						CHANNELS 3 Xrotation Yrotation Zrotation
						End Site
						{
							OFFSET 0.000000 -0.000665 9.278103
						}
					}
				}
			}
		}
	}
	JOINT leftUpperLeg
	{
		OFFSET 8.207800 -6.751701 -1.599544
		CHANNELS 6 Xposition Yposition Zposition Xrotation Yrotation Zrotation
		JOINT leftLowerLeg
		{
			OFFSET 0.000004 -44.370037 0.346940
			CHANNELS 3 Xrotation Yrotation Zrotation
			JOINT leftFoot
			{
				OFFSET 0.000004 -44.423611 -3.044388
				CHANNELS 3 Xrotation Yrotation Zrotation
				JOINT leftToes
				{
					OFFSET 0.000001 -8.728690 10.710592
					CHANNELS 3 Xrotation Yrotation Zrotation
					JOINT leftToesEnd
					{
						OFFSET 0.000000 -0.000680 9.278101
						CHANNELS 3 Xrotation Yrotation Zrotation
						End Site
						{
							OFFSET 0.000000 -0.000680 9.278101
						}
					}
				}
			}
		}
	}
}
MOTION
Frames: 4
Frame Time: 0.033333
0.478546 101.630859 1.555252 -0.893322 1.577730 -5.358981 -0.000001 10.181546 0.131523 1.298039 -1.197540 3.016666 0.728746 0.264196 5.944685 0.710791 0.781492 5.851996 0.000000 16.740379 -2.049023 1.045307 -0.304693 -2.160954 -0.000002 9.617834 1.684975 1.584882 0.544207 -8.137580 0.000000 22.037384 7.501074 0.000000 0.000000 -0.000000 -4.569999 11.014892 -2.160842 4.508133 3.324381 5.471585 -1.219704 0.655837 67.345412 -0.000012 17.736777 0.000034 -11.193107 -9.123275 10.139270 -2.464775 -1.573990 2.681907 18.502187 0.461578 -10.920255 1.284617 -32.755313 3.089570 -2.646282 -1.527816 1.527819 1.982255 -8.434757 1.135735 -1.994606 -1.151586 1.151570 0.000001 -0.000004 0.000003 -9.108291 -0.517884 2.259804 0.342042 -4.680459 7.843783 0.387027 -2.823580 20.566222 -0.193127 -0.216342 13.843938 0.000000 -0.000000 0.000003 -9.532484 -0.000002 0.000001 0.910716 -8.763972 15.819394 0.919885 -3.992414 33.415690 0.216458 -1.688783 15.897684 0.000000 0.000000 -0.000001 -9.103578 -0.043104 -1.865099 2.552422 -11.667041 26.900985 1.710778 -3.886896 40.217219 -0.157985 0.035529 17.812869 -0.000001 -0.000000 -0.000000 -8.076652 -0.486724 -3.806295 5.573382 -16.028168 36.940504 1.378578 -4.077514 45.644095 -0.727745 -0.247402 22.121437 -0.000002 0.000000 -0.000001 4.570404 11.014692 -2.160816 3.582354 -13.764047 -5.044474 4.032810 3.514300 -83.678335 0.000002 -14.506792 0.000005 -27.592591 3.698795 -9.416219 2.466093 -1.576199 2.681693 18.491375 -0.461335 10.916041 1.284033 32.757608 -3.088993 2.647879 -1.528744 1.528751 2.117130 9.311158 -0.358629 1.998914 -1.154090 1.154070 0.000001 -0.000002 -0.000002 9.109289 -0.518018 2.259899 0.339559 4.671367 -7.844274 0.387017 2.823621 -20.566231 0.034609 0.816843 -10.169807 -0.000001 0.000000 -0.000004 9.533402 0.000002 -0.000002 0.912560 8.769294 -15.831728 0.918069 3.989655 -33.382136 0.170890 1.490215 -12.277929 0.000001 -0.000000 0.000001 9.104494 -0.043006 -1.865104 2.555790 11.673077 -26.909180 1.710618 3.886860 -40.215481 0.544838 1.835096 -19.344131 0.000001 -0.000000 0.000000 8.077810 -0.486891 -3.806299 5.576040 16.029240 -36.940621 1.378643 4.077724 -45.645611 0.486566 2.853417 -20.524718 0.000001 0.000000 0.000003 -8.207798 -6.751723 -1.599544 -1.605295 -4.966829 10.551753 12.449043 -5.082066 3.268388 -9.847012 1.008397 -7.754723 -0.514650 0.000005 0.000003 -0.000000 -0.000000 0.000000 8.207801 -6.751716 -1.599543 -19.555984 10.813089 15.936243 22.045067 9.498149 2.339207 -1.490973 3.341961 -8.781923 -0.441960 0.000000 -0.000003 0.000000 0.000002 0.000000 
0.491551 101.615486 1.541585 -1.040310 1.593727 -5.386303 -0.000000 10.181556 0.131523 1.316913 -1.139178 3.039875 0.760944 0.379982 5.964480 0.743262 0.897155 5.872069 0.000000 16.740385 -2.049021 1.062485 -0.371943 -2.155058 -0.000006 9.617821 1.684977 1.809417 0.516728 -8.216051 0.000000 22.037354 7.501076 -0.000001 -0.000000 0.000000 -4.570001 11.014890 -2.160841 4.450917 3.680444 6.087123 -0.910763 -0.615841 66.730374 -0.000004 18.579361 0.000039 -8.364054 -11.731766 7.549647 -2.464801 -1.573992 2.681905 18.499166 0.461559 -10.888917 1.304537 -32.751758 3.139864 -2.646277 -1.527824 1.527813 1.982266 -8.434753 1.135733 -1.994594 -1.151583 1.151576 0.000001 -0.000005 0.000001 -9.108307 -0.517881 2.259802 0.342034 -4.680462 7.843781 0.387032 -2.823575 20.566207 -0.193119 -0.216348 13.843948 -0.000000 -0.000000 0.000003 -9.532510 0.000026 0.000000 0.910731 -8.763973 15.819418 0.919878 -3.992410 33.415693 0.216448 -1.688787 15.897684 -0.000002 -0.000001 0.000001 -9.103601 -0.043104 -1.865101 2.552427 -11.667041 26.900985 1.710773 -3.886896 40.217223 -0.157978 0.035532 17.812862 0.000001 0.000000 0.000000 -8.076708 -0.486727 -3.806298 5.573384 -16.028171 36.940525 1.378580 -4.077511 45.644068 -0.727748 -0.247405 22.121441 0.000000 -0.000001 -0.000001 4.570400 11.014685 -2.160816 3.525058 -13.876498 -5.184380 4.324988 4.143514 -83.372581 -0.000015 -15.205879 -0.000012 -26.844728 4.027839 -9.351951 2.466099 -1.576213 2.681693 18.491378 -0.461332 10.916052 1.284031 32.757608 -3.088992 2.647875 -1.528731 1.528752 2.117130 9.311161 -0.358627 1.998921 -1.154093 1.154087 0.000001 -0.000003 0.000001 9.109304 -0.518013 2.259899 0.644006 4.290933 -6.741766 0.387004 2.823621 -20.566227 0.034617 0.816849 -10.169820 0.000002 0.000002 -0.000003 9.533392 -0.000000 -0.000002 0.800095 8.482534 -14.666779 0.918073 3.989656 -33.382140 0.170879 1.490207 -12.277927 -0.000000 -0.000001 0.000001 9.104502 -0.042991 -1.865101 2.121255 11.157966 -24.118064 1.709663 3.885941 -40.202295 0.544839 1.835100 -19.344141 -0.000000 -0.000001 0.000000 8.077818 -0.486894 -3.806297 4.713854 15.624613 -32.590237 1.372370 4.070456 -45.549910 0.486053 2.852290 -20.512330 0.000000 0.000000 -0.000001 -8.207800 -6.751734 -1.599544 -1.521811 -4.975575 10.600116 12.581475 -4.979041 3.221982 -9.919829 0.902018 -7.742660 -0.514643 -0.000000 0.000000 -0.000000 -0.000000 -0.000000 8.207800 -6.751717 -1.599543 -19.510732 10.735262 15.922793 22.222261 9.578051 2.449517 -1.460474 3.341586 -8.832287 -0.527480 -0.000003 0.000007 0.000000 -0.000001 0.000000 
0.533115 101.598984 1.543024 -1.168881 1.697566 -5.394799 0.000001 10.181558 0.131523 1.326255 -1.087664 3.042889 0.775264 0.479425 5.959476 0.758038 0.996559 5.867299 -0.000002 16.740349 -2.049018 1.119014 -0.418125 -2.140873 -0.000001 9.617828 1.684973 2.216577 0.606796 -8.265385 -0.000000 22.037369 7.501073 -0.000000 -0.000000 -0.000000 -4.570002 11.014871 -2.160837 4.375456 4.024457 6.469318 -0.586926 -1.967894 66.349093 -0.000004 19.518526 0.000017 -6.242157 -13.991307 5.229992 -2.464811 -1.574015 2.681908 18.489896 0.465547 -10.809994 1.364645 -32.734392 3.288989 -2.646272 -1.527814 1.527817 1.982243 -8.434764 1.135740 -1.994594 -1.151584 1.151575 -0.000000 -0.000002 0.000001 -9.108320 -0.517872 2.259803 0.342045 -4.680464 7.843764 0.387022 -2.823573 20.566229 -0.193121 -0.216341 13.843947 -0.000000 0.000001 0.000001 -9.532522 0.000011 -0.000001 0.910715 -8.763971 15.819393 0.919882 -3.992416 33.415690 0.216459 -1.688796 15.897692 -0.000000 0.000001 0.000001 -9.103635 -0.043111 -1.865101 2.552429 -11.667042 26.900966 1.710771 -3.886894 40.217213 -0.157982 0.035530 17.812879 0.000000 0.000000 0.000000 -8.076712 -0.486722 -3.806297 5.573369 -16.028171 36.940498 1.378584 -4.077515 45.644088 -0.727746 -0.247418 22.121448 -0.000001 -0.000000 -0.000000 4.570400 11.014693 -2.160813 3.453925 -14.086669 -5.341824 5.385631 5.229494 -83.114427 -0.000013 -17.031002 -0.000005 -25.748449 4.522648 -9.054994 2.466099 -1.576211 2.681691 18.491388 -0.461333 10.916042 1.284034 32.757618 -3.088998 2.647886 -1.528749 1.528755 2.117130 9.311160 -0.358625 1.998917 -1.154095 1.154074 0.000001 0.000006 0.000003 9.109302 -0.518021 2.259900 1.018374 3.858554 -5.439583 0.387010 2.823618 -20.566224 0.034616 0.816850 -10.169802 -0.000001 0.000001 -0.000002 9.533399 0.000005 0.000001 0.680094 8.140274 -13.297893 0.918055 3.989657 -33.382140 0.170888 1.490218 -12.277945 -0.000000 -0.000001 0.000000 9.104494 -0.043005 -1.865101 1.662417 10.507211 -20.849193 1.708546 3.884857 -40.186702 0.544841 1.835115 -19.344142 -0.000001 0.000001 0.000001 8.077818 -0.486896 -3.806301 3.755540 15.014530 -27.499870 1.365001 4.061872 -45.437314 0.485447 2.850944 -20.497734 -0.000001 -0.000001 -0.000000 -8.207799 -6.751715 -1.599543 -1.475869 -4.986802 10.616502 12.760599 -4.873027 3.172643 -10.031945 0.709609 -7.712773 -0.514655 -0.000004 -0.000001 0.000000 -0.000000 0.000000 8.207799 -6.751699 -1.599542 -19.494600 10.693038 15.878872 22.419608 9.529036 2.523090 -1.489353 3.341954 -8.832015 -0.594321 -0.000001 0.000002 0.000000 -0.000001 0.000000 
0.595193 101.584641 1.544299 -1.306714 1.906687 -5.366324 -0.000000 10.181567 0.131524 1.338537 -1.043674 3.028833 0.796253 0.565143 5.920265 0.779749 1.082290 5.828305 0.000003 16.740364 -2.049021 1.197846 -0.444293 -2.146685 0.000001 9.617879 1.684975 2.870202 0.777742 -8.299190 0.000000 22.037369 7.501074 -0.000000 -0.000001 0.000000 -4.570002 11.014880 -2.160840 4.294350 4.327479 6.689826 -0.708283 -3.482347 66.230370 0.000001 20.109795 0.000042 -5.485016 -15.747797 3.402893 -2.464808 -1.573997 2.681905 18.479931 0.477397 -10.681453 1.462226 -32.705647 3.531327 -2.646261 -1.527794 1.527809 1.964261 -8.439254 1.133983 -1.994590 -1.151585 1.151576 0.000001 0.000003 0.000003 -9.108297 -0.517878 2.259803 0.342039 -4.680463 7.843754 0.387020 -2.823573 20.566220 -0.193122 -0.216347 13.843929 -0.000000 -0.000001 0.000006 -9.532515 0.000013 -0.000000 0.910713 -8.763970 15.819386 0.919881 -3.992412 33.415679 0.216464 -1.688793 15.897701 0.000000 0.000000 0.000000 -9.103596 -0.043109 -1.865102 2.552415 -11.667045 26.900966 1.710783 -3.886902 40.217236 -0.157975 0.035536 17.812867 -0.000002 0.000000 0.000001 -8.076685 -0.486726 -3.806299 5.573368 -16.028171 36.940453 1.378589 -4.077522 45.644085 -0.727741 -0.247412 22.121439 -0.000001 0.000000 -0.000000 4.570402 11.014700 -2.160814 3.378144 -14.334539 -5.459158 6.630997 6.455339 -82.903702 0.000008 -18.514348 0.000017 -24.533353 4.203923 -8.998931 2.466084 -1.576207 2.681695 18.491356 -0.461337 10.916066 1.284036 32.757615 -3.088992 2.647868 -1.528733 1.528744 2.117130 9.311161 -0.358624 1.998921 -1.154094 1.154074 0.000001 -0.000000 -0.000002 9.109291 -0.518003 2.259899 1.433691 3.419115 -4.053658 0.387009 2.823609 -20.566202 0.034610 0.816854 -10.169820 0.000000 0.000002 -0.000003 9.533385 0.000005 0.000001 0.567591 7.772092 -11.849215 0.918055 3.989648 -33.382136 0.170888 1.490218 -12.277926 -0.000001 -0.000002 0.000005 9.104488 -0.042985 -1.865102 1.242455 9.769429 -17.403008 1.707385 3.883716 -40.170197 0.544832 1.835096 -19.344142 -0.000001 -0.000001 0.000002 8.077797 -0.486890 -3.806300 2.825162 14.217796 -22.145831 1.357204 4.052776 -45.317977 0.484817 2.849527 -20.482238 0.000000 -0.000000 0.000000 -8.207799 -6.751699 -1.599544 -1.444642 -4.992662 10.609473 12.972327 -4.762424 3.098687 -10.171329 0.404401 -7.670553 -0.514643 0.000003 -0.000002 -0.000000 0.000001 0.000000 8.207800 -6.751697 -1.599545 -19.476151 10.658575 15.790369 22.621233 9.353723 2.569047 -1.526267 3.345382 -8.778842 -0.679437 -0.000005 -0.000002 0.000000 0.000000 0.000000 
